<svg width="678" height="455" viewBox="0 0 678 455" fill="none" xmlns="http://www.w3.org/2000/svg">
<circle cx="83.9474" cy="156.411" r="83.9474" fill="#B2B2A9"/>
<circle cx="176.914" cy="241.053" r="83.9474" fill="#B2B2A9"/>
<circle cx="211.603" cy="118.947" r="83.9474" fill="#B2B2A9"/>
<circle cx="289.306" cy="185.55" r="83.9474" fill="#B2B2A9"/>
<circle cx="387.947" cy="286.411" r="83.9474" fill="#B2B2A9"/>
<circle cx="480.914" cy="371.053" r="83.9474" fill="#B2B2A9"/>
<circle cx="515.603" cy="248.947" r="83.9474" fill="#B2B2A9"/>
<circle cx="593.306" cy="315.55" r="83.9474" fill="#B2B2A9"/>
<circle cx="368.947" cy="121.411" r="83.9474" fill="#787872"/>
<circle cx="461.914" cy="206.053" r="83.9474" fill="#787872"/>
<circle cx="496.603" cy="83.9474" r="83.9474" fill="#787872"/>
<circle cx="574.306" cy="150.55" r="83.9474" fill="#787872"/>
<circle cx="322.947" cy="153.411" r="83.9474" fill="#44443F"/>
<circle cx="415.914" cy="238.053" r="83.9474" fill="#44443F"/>
<circle cx="450.603" cy="115.947" r="83.9474" fill="#44443F"/>
<circle cx="528.306" cy="182.55" r="83.9474" fill="#44443F"/>
<circle cx="229.947" cy="264.411" r="83.9474" fill="#787872"/>
<circle cx="322.914" cy="349.053" r="83.9474" fill="#787872"/>
<circle cx="357.603" cy="226.947" r="83.9474" fill="#787872"/>
<circle cx="435.306" cy="293.55" r="83.9474" fill="#787872"/>
<circle cx="343.993" cy="289.653" r="50.6459" fill="#E2E2DB"/>
<circle cx="332.596" cy="301.832" r="27.2512" fill="#44443F" stroke="#D0D0C8"/>
</svg>
