<svg width="608" height="608" viewBox="0 0 608 608" fill="none" xmlns="http://www.w3.org/2000/svg">
<path d="M106.684 76.1767L178.319 102.187L119.976 151.219L106.684 76.1767Z" fill="#FF9A67"/>
<path d="M221.851 17.1953L279.147 67.4461L206.981 91.9406L221.851 17.1953Z" fill="#FF9A67"/>
<path d="M364.582 9.77472L387.073 82.5907L312.767 65.6603L364.582 9.77472Z" fill="#FF9A67"/>
<path d="M477.208 50.9405L477.063 127.151L411.136 88.9198L477.208 50.9405Z" fill="#FF9A67"/>
<path d="M555.028 127.996L527.888 199.21L479.785 140.098L555.028 127.996Z" fill="#FF9A67"/>
<path d="M600.088 246.256L541.337 294.798L528.674 219.648L600.088 246.256Z" fill="#FF9A67"/>
<path d="M597.278 365.366L524.747 388.762L540.751 314.251L597.278 365.366Z" fill="#FF9A67"/>
<path d="M549.499 472.782L473.5 467.107L516.414 404.128L549.499 472.782Z" fill="#FF9A67"/>
<path d="M466.438 557.215L397.423 524.89L459.925 481.284L466.438 557.215Z" fill="#FF9A67"/>
<path d="M349.63 600.817L301.369 541.835L376.58 529.531L349.63 600.817Z" fill="#FF9A67"/>
<path d="M227.686 593.914L206.731 520.641L280.665 539.13L227.686 593.914Z" fill="#FF9A67"/>
<path d="M227.686 593.914L206.731 520.641L280.665 539.13L227.686 593.914Z" fill="#FF9A67"/>
<path d="M116.173 533.264L122.422 457.311L185.075 500.699L116.173 533.264Z" fill="#FF9A67"/>
<path d="M28.7897 437.673L67.2582 371.884L104.999 438.093L28.7897 437.673Z" fill="#FF9A67"/>
<path d="M3.23542 312.22L66.2548 269.365L71.8587 345.369L3.23542 312.22Z" fill="#FF9A67"/>
<path d="M20.0272 197.464L93.4706 177.115L74.3712 250.893L20.0272 197.464Z" fill="#FF9A67"/>
<rect x="162.89" y="55.0771" width="398" height="398" rx="199" transform="rotate(13.7621 162.89 55.0771)" fill="#FFE872" stroke="#FFDA1C" stroke-width="2"/>
<circle cx="261.222" cy="338.786" r="99.5" transform="rotate(13.7621 261.222 338.786)" fill="#FFFFEF" stroke="#CDB32F"/>
<circle cx="241.346" cy="375.327" r="49.5" transform="rotate(13.7621 241.346 375.327)" fill="#51460B" stroke="#FFDA1C"/>
</svg>
