<svg width="551" height="826" viewBox="0 0 551 826" fill="none" xmlns="http://www.w3.org/2000/svg">
<path d="M397.585 221.202L308.79 364.982L426.975 387.615L397.585 221.202Z" fill="#808883"/>
<path d="M386.346 277.132L275.682 456.327L422.972 484.535L386.346 277.132Z" fill="#808883"/>
<path d="M325.569 69.2015L236.773 212.982L354.958 235.615L325.569 69.2015Z" fill="#5A5E5C"/>
<path d="M314.329 125.132L203.665 304.327L350.955 332.535L314.329 125.132Z" fill="#5A5E5C"/>
<path d="M221.447 22.6617L58.2997 308.405L289.799 344.522L221.447 22.6617Z" fill="#404341"/>
<path d="M203.327 132.254L0.000115491 488.378L288.51 533.39L203.327 132.254Z" fill="#404341"/>
<path d="M306.461 196.763L164.179 445.963L366.071 477.461L306.461 196.763Z" fill="#2C312D"/>
<path d="M290.659 292.34L113.335 602.919L364.947 642.174L290.659 292.34Z" fill="#2C312D"/>
<path d="M371.308 328.022L119.173 769.622L476.942 825.44L371.308 328.022Z" fill="#1E2320"/>
</svg>
